<svg width="46" height="46" viewBox="0 0 46 46" fill="none" xmlns="http://www.w3.org/2000/svg">
<path d="M8.15805 31.8047C6.01777 28.1937 5.26913 23.9257 6.05267 19.8018C6.83621 15.678 9.09805 11.982 12.4136 9.4076C15.7291 6.83324 19.8702 5.55759 24.0596 5.82014C28.249 6.08269 32.1985 7.86538 35.1667 10.8335C38.1349 13.8017 39.9176 17.7512 40.1801 21.9406C40.4427 26.13 39.167 30.2712 36.5927 33.5867C34.0183 36.9022 30.3223 39.1641 26.1984 39.9476C22.0746 40.7311 17.8065 39.9825 14.1956 37.8422L8.22993 39.5313C7.98551 39.6028 7.72637 39.6072 7.47966 39.5441C7.23295 39.481 7.00775 39.3526 6.82768 39.1726C6.64762 38.9925 6.5193 38.7673 6.45619 38.5206C6.39309 38.2739 6.39751 38.0147 6.46899 37.7703L8.15805 31.8047Z" stroke="black" stroke-width="2" stroke-linecap="round" stroke-linejoin="round"/>
<path d="M14.375 25.875L20.125 20.125L25.875 25.875L31.625 20.125" stroke="black" stroke-width="2" stroke-linecap="round" stroke-linejoin="round"/>
</svg>
