<svg width="55" height="46" viewBox="0 0 55 46" fill="none" xmlns="http://www.w3.org/2000/svg">
<path d="M33.2739 16.1882C33.2739 12.235 36.5981 8.94675 40.5513 9.00065C41.9357 9.01664 43.286 9.43212 44.4399 10.1971C45.5938 10.9622 46.5022 12.0442 47.056 13.3132H53.3989L47.595 19.1171C47.2205 24.9472 44.6397 30.4158 40.3773 34.4111C36.115 38.4064 30.491 40.6285 24.6489 40.6257C18.8989 40.6257 17.4614 38.4694 17.4614 38.4694C17.4614 38.4694 23.2114 36.3132 26.0864 32.0007C26.0864 32.0007 14.5864 26.2507 17.4614 10.4382C17.4614 10.4382 24.6489 17.6257 33.2739 19.0632V16.1882Z" stroke="black" stroke-width="2" stroke-linecap="round" stroke-linejoin="round"/>
</svg>
